<mxfile host="app.diagrams.net" agent="Mozilla/5.0 (Windows NT 10.0; Win64; x64) AppleWebKit/537.36 (KHTML, like Gecko) Chrome/129.0.0.0 Safari/537.36" version="24.7.17" pages="2">
  <diagram name="Trang-1" id="Aj6OV1te2Z_HzNzaSSoL">
    <mxGraphModel dx="1050" dy="522" grid="0" gridSize="10" guides="1" tooltips="1" connect="1" arrows="1" fold="1" page="0" pageScale="1" pageWidth="1169" pageHeight="827" math="0" shadow="0">
      <root>
        <mxCell id="0" />
        <mxCell id="1" parent="0" />
        <mxCell id="32zOT0y2TCcmP6HHMO5L-1" value="Admin&lt;div&gt;&lt;br&gt;&lt;/div&gt;" style="shape=umlActor;verticalLabelPosition=bottom;verticalAlign=top;html=1;outlineConnect=0;" parent="1" vertex="1">
          <mxGeometry x="100" y="180" width="30" height="60" as="geometry" />
        </mxCell>
        <mxCell id="32zOT0y2TCcmP6HHMO5L-3" value="Quản lý nhân viên" style="ellipse;whiteSpace=wrap;html=1;movable=1;resizable=1;rotatable=1;deletable=1;editable=1;locked=0;connectable=1;" parent="1" vertex="1">
          <mxGeometry x="250" y="180" width="120" height="60" as="geometry" />
        </mxCell>
        <mxCell id="32zOT0y2TCcmP6HHMO5L-4" value="" style="endArrow=none;html=1;rounded=0;entryX=0;entryY=0.5;entryDx=0;entryDy=0;" parent="1" source="32zOT0y2TCcmP6HHMO5L-1" target="32zOT0y2TCcmP6HHMO5L-3" edge="1">
          <mxGeometry width="50" height="50" relative="1" as="geometry">
            <mxPoint x="510" y="300" as="sourcePoint" />
            <mxPoint x="560" y="250" as="targetPoint" />
          </mxGeometry>
        </mxCell>
        <mxCell id="32zOT0y2TCcmP6HHMO5L-5" value="Login" style="ellipse;whiteSpace=wrap;html=1;" parent="1" vertex="1">
          <mxGeometry x="250" y="40" width="120" height="50" as="geometry" />
        </mxCell>
        <mxCell id="32zOT0y2TCcmP6HHMO5L-6" value="include" style="endArrow=open;endSize=12;dashed=1;html=1;rounded=0;exitX=0.5;exitY=0;exitDx=0;exitDy=0;entryX=0.5;entryY=1;entryDx=0;entryDy=0;" parent="1" source="32zOT0y2TCcmP6HHMO5L-3" target="32zOT0y2TCcmP6HHMO5L-5" edge="1">
          <mxGeometry y="10" width="160" relative="1" as="geometry">
            <mxPoint x="460" y="270" as="sourcePoint" />
            <mxPoint x="620" y="270" as="targetPoint" />
            <mxPoint as="offset" />
          </mxGeometry>
        </mxCell>
        <mxCell id="32zOT0y2TCcmP6HHMO5L-10" value="update user" style="ellipse;whiteSpace=wrap;html=1;" parent="1" vertex="1">
          <mxGeometry x="580" y="220" width="120" height="50" as="geometry" />
        </mxCell>
        <mxCell id="32zOT0y2TCcmP6HHMO5L-11" value="add user" style="ellipse;whiteSpace=wrap;html=1;" parent="1" vertex="1">
          <mxGeometry x="585" y="120" width="120" height="50" as="geometry" />
        </mxCell>
        <mxCell id="32zOT0y2TCcmP6HHMO5L-12" value="view user" style="ellipse;whiteSpace=wrap;html=1;" parent="1" vertex="1">
          <mxGeometry x="585" y="40" width="120" height="50" as="geometry" />
        </mxCell>
        <mxCell id="32zOT0y2TCcmP6HHMO5L-14" value="delete user" style="ellipse;whiteSpace=wrap;html=1;" parent="1" vertex="1">
          <mxGeometry x="580" y="310" width="120" height="50" as="geometry" />
        </mxCell>
        <mxCell id="32zOT0y2TCcmP6HHMO5L-15" value="extend" style="endArrow=open;endSize=12;dashed=1;html=1;rounded=0;exitX=0;exitY=0.5;exitDx=0;exitDy=0;" parent="1" source="32zOT0y2TCcmP6HHMO5L-12" edge="1">
          <mxGeometry y="10" width="160" relative="1" as="geometry">
            <mxPoint x="320" y="190" as="sourcePoint" />
            <mxPoint x="340" y="180" as="targetPoint" />
            <mxPoint as="offset" />
          </mxGeometry>
        </mxCell>
        <mxCell id="32zOT0y2TCcmP6HHMO5L-16" value="extend" style="endArrow=open;endSize=12;dashed=1;html=1;rounded=0;exitX=0.002;exitY=0.36;exitDx=0;exitDy=0;entryX=0.747;entryY=-0.007;entryDx=0;entryDy=0;entryPerimeter=0;exitPerimeter=0;" parent="1" source="32zOT0y2TCcmP6HHMO5L-11" edge="1">
          <mxGeometry y="10" width="160" relative="1" as="geometry">
            <mxPoint x="595" y="75" as="sourcePoint" />
            <mxPoint x="350" y="190" as="targetPoint" />
            <mxPoint as="offset" />
          </mxGeometry>
        </mxCell>
        <mxCell id="32zOT0y2TCcmP6HHMO5L-17" value="extend" style="endArrow=open;endSize=12;dashed=1;html=1;rounded=0;entryX=0.747;entryY=-0.007;entryDx=0;entryDy=0;entryPerimeter=0;" parent="1" source="32zOT0y2TCcmP6HHMO5L-10" edge="1">
          <mxGeometry y="10" width="160" relative="1" as="geometry">
            <mxPoint x="595" y="148" as="sourcePoint" />
            <mxPoint x="360" y="200" as="targetPoint" />
            <mxPoint as="offset" />
          </mxGeometry>
        </mxCell>
        <mxCell id="32zOT0y2TCcmP6HHMO5L-18" value="extend" style="endArrow=open;endSize=12;dashed=1;html=1;rounded=0;exitX=0;exitY=0.5;exitDx=0;exitDy=0;entryX=0.747;entryY=-0.007;entryDx=0;entryDy=0;entryPerimeter=0;" parent="1" source="32zOT0y2TCcmP6HHMO5L-14" edge="1">
          <mxGeometry y="10" width="160" relative="1" as="geometry">
            <mxPoint x="605" y="158" as="sourcePoint" />
            <mxPoint x="370" y="210" as="targetPoint" />
            <mxPoint as="offset" />
          </mxGeometry>
        </mxCell>
        <mxCell id="32zOT0y2TCcmP6HHMO5L-19" value="confirm delete&amp;nbsp;" style="ellipse;whiteSpace=wrap;html=1;" parent="1" vertex="1">
          <mxGeometry x="810" y="310" width="120" height="50" as="geometry" />
        </mxCell>
        <mxCell id="32zOT0y2TCcmP6HHMO5L-20" value="include" style="endArrow=open;endSize=12;dashed=1;html=1;rounded=0;entryX=0;entryY=0.5;entryDx=0;entryDy=0;exitX=1;exitY=0.5;exitDx=0;exitDy=0;" parent="1" source="32zOT0y2TCcmP6HHMO5L-14" target="32zOT0y2TCcmP6HHMO5L-19" edge="1">
          <mxGeometry y="10" width="160" relative="1" as="geometry">
            <mxPoint x="770" y="310" as="sourcePoint" />
            <mxPoint x="320" y="100" as="targetPoint" />
            <mxPoint as="offset" />
          </mxGeometry>
        </mxCell>
        <mxCell id="32zOT0y2TCcmP6HHMO5L-22" value="" style="swimlane;startSize=0;" parent="1" vertex="1">
          <mxGeometry x="185" y="10" width="782" height="380" as="geometry" />
        </mxCell>
      </root>
    </mxGraphModel>
  </diagram>
  <diagram id="Fz1A2fMzSah-dybPpNLl" name="Trang-2">
    <mxGraphModel dx="1050" dy="522" grid="0" gridSize="10" guides="1" tooltips="1" connect="1" arrows="1" fold="1" page="1" pageScale="1" pageWidth="1169" pageHeight="827" math="0" shadow="0">
      <root>
        <mxCell id="0" />
        <mxCell id="1" parent="0" />
      </root>
    </mxGraphModel>
  </diagram>
</mxfile>
